<svg xmlns="http://www.w3.org/2000/svg" viewBox="0 0 800 800" role="img" aria-label="Anaya Rose Bracelet">
  <defs>
    <radialGradient id="g308" cx="50%" cy="38%" r="78%">
      <stop offset="0%" stop-color="#dfbdb6"/>
      <stop offset="100%" stop-color="#f8e9e5"/>
    </radialGradient>
    <linearGradient id="m308" x1="0" y1="0" x2="1" y2="1">
      <stop offset="0%" stop-color="#dcc08a"/>
      <stop offset="45%" stop-color="#b8935a"/>
      <stop offset="100%" stop-color="#9c7a44"/>
    </linearGradient>
    <radialGradient id="v308" cx="50%" cy="50%" r="72%">
      <stop offset="60%" stop-color="#000" stop-opacity="0"/>
      <stop offset="100%" stop-color="#3d352e" stop-opacity="0.13"/>
    </radialGradient>
  </defs>
  <rect width="800" height="800" fill="url(#g308)"/>
  <circle cx="400" cy="352" r="266" fill="#fff" opacity="0.16"/>
  <ellipse cx="400" cy="320" rx="196" ry="112" fill="none" stroke="url(#m308)" stroke-width="9"/><polygon points="596.0,305.0 603.6,312.4 611.0,320.0 603.6,327.6 596.0,335.0 588.4,327.6 581.0,320.0 588.4,312.4" fill="url(#m308)" opacity="0.95"/><circle cx="592.7" cy="316.1" r="3.0" fill="#fff" opacity="0.55"/><polygon points="569.7,361.0 577.4,368.4 584.7,376.0 577.4,383.6 569.7,391.0 562.1,383.6 554.7,376.0 562.1,368.4" fill="url(#m308)" opacity="0.95"/><circle cx="566.4" cy="372.1" r="3.0" fill="#fff" opacity="0.55"/><polygon points="498.0,402.0 505.6,409.4 513.0,417.0 505.6,424.6 498.0,432.0 490.4,424.6 483.0,417.0 490.4,409.4" fill="url(#m308)" opacity="0.95"/><circle cx="494.7" cy="413.1" r="3.0" fill="#fff" opacity="0.55"/><polygon points="400.0,417.0 407.6,424.4 415.0,432.0 407.6,439.6 400.0,447.0 392.4,439.6 385.0,432.0 392.4,424.4" fill="url(#m308)" opacity="0.95"/><circle cx="396.7" cy="428.1" r="3.0" fill="#fff" opacity="0.55"/><polygon points="302.0,402.0 309.6,409.4 317.0,417.0 309.6,424.6 302.0,432.0 294.4,424.6 287.0,417.0 294.4,409.4" fill="url(#m308)" opacity="0.95"/><circle cx="298.7" cy="413.1" r="3.0" fill="#fff" opacity="0.55"/><polygon points="230.3,361.0 237.9,368.4 245.3,376.0 237.9,383.6 230.3,391.0 222.6,383.6 215.3,376.0 222.6,368.4" fill="url(#m308)" opacity="0.95"/><circle cx="227.0" cy="372.1" r="3.0" fill="#fff" opacity="0.55"/><polygon points="204.0,305.0 211.6,312.4 219.0,320.0 211.6,327.6 204.0,335.0 196.4,327.6 189.0,320.0 196.4,312.4" fill="url(#m308)" opacity="0.95"/><circle cx="200.7" cy="316.1" r="3.0" fill="#fff" opacity="0.55"/><polygon points="230.3,249.0 237.9,256.4 245.3,264.0 237.9,271.6 230.3,279.0 222.6,271.6 215.3,264.0 222.6,256.4" fill="url(#m308)" opacity="0.95"/><circle cx="227.0" cy="260.1" r="3.0" fill="#fff" opacity="0.55"/><polygon points="302.0,208.0 309.6,215.4 317.0,223.0 309.6,230.6 302.0,238.0 294.4,230.6 287.0,223.0 294.4,215.4" fill="url(#m308)" opacity="0.95"/><circle cx="298.7" cy="219.1" r="3.0" fill="#fff" opacity="0.55"/><polygon points="400.0,193.0 407.6,200.4 415.0,208.0 407.6,215.6 400.0,223.0 392.4,215.6 385.0,208.0 392.4,200.4" fill="url(#m308)" opacity="0.95"/><circle cx="396.7" cy="204.1" r="3.0" fill="#fff" opacity="0.55"/><polygon points="498.0,208.0 505.6,215.4 513.0,223.0 505.6,230.6 498.0,238.0 490.4,230.6 483.0,223.0 490.4,215.4" fill="url(#m308)" opacity="0.95"/><circle cx="494.7" cy="219.1" r="3.0" fill="#fff" opacity="0.55"/><polygon points="569.7,249.0 577.4,256.4 584.7,264.0 577.4,271.6 569.7,279.0 562.1,271.6 554.7,264.0 562.1,256.4" fill="url(#m308)" opacity="0.95"/><circle cx="566.4" cy="260.1" r="3.0" fill="#fff" opacity="0.55"/><polygon points="400.0,402.0 415.3,416.7 430.0,432.0 415.3,447.3 400.0,462.0 384.7,447.3 370.0,432.0 384.7,416.7" fill="url(#m308)" opacity="0.95"/><circle cx="393.4" cy="424.2" r="6.0" fill="#fff" opacity="0.55"/>
  <rect width="800" height="800" fill="url(#v308)"/>
</svg>