<svg xmlns="http://www.w3.org/2000/svg" viewBox="0 0 800 800" role="img" aria-label="Mira Pearl Bangle">
  <defs>
    <radialGradient id="g318" cx="50%" cy="38%" r="78%">
      <stop offset="0%" stop-color="#ddd2c1"/>
      <stop offset="100%" stop-color="#faf6f0"/>
    </radialGradient>
    <linearGradient id="m318" x1="0" y1="0" x2="1" y2="1">
      <stop offset="0%" stop-color="#dcc08a"/>
      <stop offset="45%" stop-color="#b8935a"/>
      <stop offset="100%" stop-color="#9c7a44"/>
    </linearGradient>
    <radialGradient id="v318" cx="50%" cy="50%" r="72%">
      <stop offset="60%" stop-color="#000" stop-opacity="0"/>
      <stop offset="100%" stop-color="#3d352e" stop-opacity="0.13"/>
    </radialGradient>
  </defs>
  <rect width="800" height="800" fill="url(#g318)"/>
  <circle cx="400" cy="352" r="266" fill="#fff" opacity="0.16"/>
  <circle cx="400" cy="330" r="160" fill="none" stroke="url(#m318)" stroke-width="8"/><circle cx="400" cy="330" r="126" fill="none" stroke="url(#m318)" stroke-width="5"/><circle cx="400" cy="330" r="94" fill="none" stroke="url(#m318)" stroke-width="3.2"/><polygon points="547.8,377.2 554.9,384.1 561.8,391.2 554.9,398.4 547.8,405.2 540.7,398.4 533.8,391.2 540.7,384.1" fill="url(#m318)" opacity="0.95"/><circle cx="544.7" cy="387.6" r="2.8" fill="#fff" opacity="0.55"/><polygon points="461.2,463.8 468.4,470.7 475.2,477.8 468.4,484.9 461.2,491.8 454.1,484.9 447.2,477.8 454.1,470.7" fill="url(#m318)" opacity="0.95"/><circle cx="458.1" cy="474.2" r="2.8" fill="#fff" opacity="0.55"/><polygon points="338.8,463.8 345.9,470.7 352.8,477.8 345.9,484.9 338.8,491.8 331.6,484.9 324.8,477.8 331.6,470.7" fill="url(#m318)" opacity="0.95"/><circle cx="335.7" cy="474.2" r="2.8" fill="#fff" opacity="0.55"/><polygon points="252.2,377.2 259.3,384.1 266.2,391.2 259.3,398.4 252.2,405.2 245.1,398.4 238.2,391.2 245.1,384.1" fill="url(#m318)" opacity="0.95"/><circle cx="249.1" cy="387.6" r="2.8" fill="#fff" opacity="0.55"/><polygon points="252.2,254.8 259.3,261.6 266.2,268.8 259.3,275.9 252.2,282.8 245.1,275.9 238.2,268.8 245.1,261.6" fill="url(#m318)" opacity="0.95"/><circle cx="249.1" cy="265.1" r="2.8" fill="#fff" opacity="0.55"/><polygon points="338.8,168.2 345.9,175.1 352.8,182.2 345.9,189.3 338.8,196.2 331.6,189.3 324.8,182.2 331.6,175.1" fill="url(#m318)" opacity="0.95"/><circle cx="335.7" cy="178.5" r="2.8" fill="#fff" opacity="0.55"/><polygon points="461.2,168.2 468.4,175.1 475.2,182.2 468.4,189.3 461.2,196.2 454.1,189.3 447.2,182.2 454.1,175.1" fill="url(#m318)" opacity="0.95"/><circle cx="458.1" cy="178.5" r="2.8" fill="#fff" opacity="0.55"/><polygon points="547.8,254.8 554.9,261.6 561.8,268.8 554.9,275.9 547.8,282.8 540.7,275.9 533.8,268.8 540.7,261.6" fill="url(#m318)" opacity="0.95"/><circle cx="544.7" cy="265.1" r="2.8" fill="#fff" opacity="0.55"/>
  <rect width="800" height="800" fill="url(#v318)"/>
</svg>